<?xml version="1.0" encoding="UTF-8" standalone="no"?>
<!-- Created with Inkscape (http://www.inkscape.org/) -->

<svg
   version="1.1"
   id="svg824"
   width="513.02606"
   height="185.57764"
   viewBox="0 0 513.02606 185.57764"
   sodipodi:docname="unilasalleWhite.svg"
   inkscape:version="1.1 (c68e22c387, 2021-05-23)"
   xmlns:inkscape="http://www.inkscape.org/namespaces/inkscape"
   xmlns:sodipodi="http://sodipodi.sourceforge.net/DTD/sodipodi-0.dtd"
   xmlns="http://www.w3.org/2000/svg"
   xmlns:svg="http://www.w3.org/2000/svg">
  <defs
     id="defs828" />
  <sodipodi:namedview
     id="namedview826"
     pagecolor="#ffffff"
     bordercolor="#666666"
     borderopacity="1.0"
     inkscape:pageshadow="2"
     inkscape:pageopacity="0.0"
     inkscape:pagecheckerboard="true"
     showgrid="false"
     showborder="true"
     borderlayer="true"
     inkscape:showpageshadow="false"
     inkscape:zoom="0.808348"
     inkscape:cx="272.16001"
     inkscape:cy="-48.865093"
     inkscape:window-width="2400"
     inkscape:window-height="1271"
     inkscape:window-x="2391"
     inkscape:window-y="-9"
     inkscape:window-maximized="1"
     inkscape:current-layer="g830"
     fit-margin-left="5"
     fit-margin-top="5"
     fit-margin-right="5"
     fit-margin-bottom="5" />
  <g
     inkscape:groupmode="layer"
     inkscape:label="Image"
     id="g830"
     transform="translate(-15.774743,-14.915874)">
    <path
       style="fill:#ffffff;stroke-width:1"
       d="m 203.80895,195.19589 c -3.08598,-0.522 -5.37136,-2.23098 -6.76261,-5.05702 -0.90932,-1.84709 -1.03818,-2.42771 -1.03949,-4.68367 -0.002,-3.30603 0.7299,-5.43971 2.56629,-7.48222 2.02973,-2.25755 3.98633,-3.02591 7.34326,-2.88373 2.24037,0.0949 2.83538,0.24822 4.15525,1.07075 2.34902,1.46388 3.40626,3.57555 3.61396,7.21829 l 0.16317,2.86171 h -6.76439 c -3.98224,0 -6.76439,0.12305 -6.76439,0.29917 0,1.40202 1.77887,3.67389 3.42973,4.38024 1.67858,0.71822 5.07253,0.54805 7.29027,-0.36552 1.056,-0.43501 1.956,-0.79159 2,-0.79241 0.044,-9.6e-4 0.08,0.85959 0.08,1.91202 0,1.90031 -0.009,1.91785 -1.24135,2.54678 -1.19157,0.6079 -4.6225,1.3332 -5.95865,1.25967 -0.352,-0.0194 -1.30197,-0.1472 -2.11105,-0.28406 z M 209.44084,182.32 c -0.48295,-2.39153 -2.03191,-3.52764 -4.5633,-3.347 -1.80665,0.12892 -2.92791,0.87815 -3.78794,2.53111 -0.94739,1.82085 -0.8708,1.85589 4.05583,1.85589 h 4.50543 z M 256.64,195.0905 c -2.25637,-0.51879 -3.3946,-1.1422 -4.8642,-2.66413 -1.87753,-1.94438 -2.57199,-3.87944 -2.57199,-7.16667 0,-2.3513 0.13612,-3.09335 0.85619,-4.66773 1.68312,-3.67998 4.02522,-5.27979 8.03786,-5.4904 2.3084,-0.12116 2.85438,-0.0388 4.38371,0.66136 2.97914,1.3639 4.39843,3.9832 4.39843,8.1173 V 186.24 h -6.72 c -3.696,0 -6.72,0.0766 -6.72,0.17028 0,0.45446 1.04788,2.59648 1.53221,3.13206 0.30129,0.33317 1.11469,0.89508 1.80756,1.2487 1.70298,0.86915 5.77357,0.69317 7.76749,-0.33579 0.74098,-0.38239 1.42498,-0.69525 1.52,-0.69525 0.36913,0 0.15931,3.77253 -0.22726,4.08599 -1.47389,1.19518 -6.47321,1.87145 -9.2,1.24451 z m 6.08,-12.22078 c 0,-0.94494 -0.89062,-2.6087 -1.76437,-3.29599 -0.61614,-0.48466 -1.32702,-0.69337 -2.35878,-0.69253 -2.33274,0.002 -4.14798,1.39483 -4.68987,3.5988 l -0.21636,0.88 h 4.51469 c 3.84179,0 4.51469,-0.0731 4.51469,-0.49028 z m 57.42234,12.34602 c -0.88973,-0.13786 -2.29373,-0.5497 -3.12001,-0.9152 l -1.50232,-0.66455 v -2.41194 -2.41194 l 2.04686,1.1251 c 3.2483,1.78549 6.57122,1.88771 8.50373,0.26161 0.81405,-0.68498 0.96941,-1.04588 0.96941,-2.25188 0,-2.00592 -1.00874,-2.90722 -4.73837,-4.23365 -5.14906,-1.83125 -7.10864,-4.00254 -7.09461,-7.86109 0.009,-2.42011 0.78838,-4.20449 2.43165,-5.56583 2.60926,-2.1616 7.23733,-2.5375 10.85425,-0.88161 l 1.74708,0.79983 v 2.43399 2.43399 l -1.06199,-0.81001 c -2.20141,-1.67911 -5.95453,-2.30758 -7.86883,-1.31765 -1.81068,0.93633 -2.06542,3.69378 -0.45805,4.95814 0.44109,0.34696 1.61802,0.92755 2.61543,1.2902 0.99737,0.36265 2.44755,0.89288 3.22259,1.1783 1.63347,0.60153 3.68697,2.34829 4.42544,3.7644 0.80925,1.55182 0.71168,5.44298 -0.17923,7.14834 -1.60896,3.07977 -5.99015,4.67566 -10.79303,3.93145 z m 23.21363,-0.11612 c -3.07014,-0.68487 -5.46748,-2.63235 -6.77004,-5.49962 -1.06448,-2.34323 -1.03488,-6.70672 0.0608,-8.96 1.1118,-2.28643 3.05804,-4.1027 5.3031,-4.94892 1.57133,-0.5923 2.34899,-0.68887 4.61018,-0.57253 1.74889,0.09 3.14841,0.3506 3.92,0.72997 l 1.2,0.59001 v 2.20684 2.20683 l -1.05031,-0.64913 c -3.9599,-2.44735 -8.84873,-0.9752 -10.00835,3.01375 -1.66995,5.7444 3.73443,9.98254 9.37866,7.35478 l 1.68,-0.78216 v 2.19956 2.19957 l -1.52,0.48806 c -2.21578,0.71147 -4.79271,0.87167 -6.80404,0.42299 z m 31.04404,-0.0235 c -2.24474,-0.49774 -3.38714,-1.12006 -4.8642,-2.64973 -1.87356,-1.94026 -2.59952,-3.9389 -2.60112,-7.16112 0,-2.29886 0.13754,-3.03841 0.87008,-4.64 1.69917,-3.71499 4.0281,-5.31242 8.05309,-5.52368 2.30842,-0.12116 2.85437,-0.0388 4.38371,0.66136 2.98381,1.36604 4.39844,4.03159 4.39844,8.28793 V 186.24 h -6.75424 c -6.02752,0 -6.73335,0.0545 -6.56,0.50617 0.10684,0.2784 0.19424,0.69935 0.19424,0.93545 0,0.70746 1.5966,2.38364 2.90752,3.05241 1.7999,0.91825 5.01366,0.84098 7.49248,-0.18014 1.056,-0.43501 1.956,-0.79159 2,-0.79241 0.044,-9.6e-4 0.08,0.85959 0.08,1.91202 0,1.90031 -0.009,1.91785 -1.24135,2.54678 -1.17558,0.59973 -4.56979,1.32344 -5.95865,1.27048 -0.352,-0.0134 -1.432,-0.20001 -2.4,-0.41466 z m 6.08,-12.20638 c 0,-0.94494 -0.89063,-2.6087 -1.76439,-3.29599 -0.61613,-0.48466 -1.32701,-0.69337 -2.35878,-0.69253 -2.33274,0.002 -4.14797,1.39483 -4.68986,3.5988 l -0.21635,0.88 h 4.51469 c 3.84179,0 4.51469,-0.0731 4.51469,-0.49028 z m 39.36,12.21976 c -2.25555,-0.51729 -3.39408,-1.14063 -4.86419,-2.66311 -1.9649,-2.03482 -2.6578,-3.94969 -2.64388,-7.30637 0.0144,-3.46765 0.66807,-5.17683 2.79229,-7.30106 2.08077,-2.08077 4.42375,-2.88005 7.91578,-2.70039 1.74889,0.09 3.14841,0.3506 3.92,0.72997 l 1.2,0.59001 v 2.20684 2.20683 l -1.05031,-0.64913 c -3.9599,-2.44735 -8.84873,-0.9752 -10.00835,3.01375 -1.66995,5.7444 3.73443,9.98254 9.37866,7.35478 l 1.68,-0.78216 v 2.19956 2.19957 l -1.52,0.48806 c -2.22746,0.71522 -4.80048,0.87144 -6.8,0.41285 z m 19.84,0.005 c -2.1281,-0.48891 -2.87133,-0.87909 -4.53149,-2.37896 -2.2423,-2.02578 -2.66851,-3.21337 -2.66851,-7.43541 0,-3.18053 0.0957,-3.85879 0.7047,-4.99727 1.89226,-3.5371 4.10595,-4.97924 7.95315,-5.18117 2.30842,-0.12115 2.85437,-0.0388 4.38372,0.66136 3.02112,1.38312 4.36076,3.82662 4.38438,7.99708 l 0.0141,2.48 h -6.72 c -3.696,0 -6.72,0.0766 -6.72,0.17027 0,0.45447 1.04787,2.59648 1.53219,3.13207 0.30131,0.33317 1.11469,0.89508 1.80759,1.2487 1.70297,0.86915 5.77356,0.69317 7.76748,-0.33579 0.741,-0.38239 1.425,-0.69525 1.52,-0.69525 0.095,0 0.17274,0.86068 0.17274,1.91262 0,1.63344 -0.10509,1.97996 -0.72,2.37395 -1.75197,1.12254 -6.24637,1.65286 -8.88,1.0478 z m 6.08,-12.2079 c 0,-1.0633 -1.03645,-2.95364 -1.89872,-3.463 -1.13453,-0.67018 -3.26538,-0.70258 -4.49194,-0.0683 -1.06531,0.55089 -2.11318,1.91085 -2.42275,3.14434 l -0.21597,0.86049 h 4.51469 c 3.77229,-1e-5 4.51469,-0.0779 4.51469,-0.47353 z m 12.54502,12.28978 c -0.93222,-0.16242 -2.12022,-0.51521 -2.64,-0.78399 -0.90096,-0.46591 -0.94502,-0.58657 -0.94502,-2.58715 0,-1.15414 0.108,-2.0431 0.24,-1.97545 3.39785,1.74141 5.7584,2.22687 7.44035,1.53019 1.11213,-0.46066 1.5321,-1.59128 1.01366,-2.72907 -0.26921,-0.59089 -0.95347,-0.94695 -3.04665,-1.58541 -4.48531,-1.36811 -5.96583,-2.86073 -5.96685,-6.01565 0,-2.82376 1.51443,-4.91506 4.12912,-5.69844 1.59072,-0.47659 5.62378,-0.23235 7.15037,0.43303 l 1.2,0.52303 v 2.10172 2.10172 l -1.53767,-0.7792 c -3.00246,-1.52146 -5.83763,-1.35467 -6.49801,0.38226 -0.54595,1.43593 0.45209,2.31577 3.78832,3.33972 2.40726,0.73882 3.08547,1.09959 4.02768,2.14251 2.58496,2.86125 1.55309,7.67679 -1.94487,9.0764 -1.64316,0.65746 -4.36604,0.87994 -6.41043,0.52378 z M 284.41825,194.7348 c -3.05203,-1.15842 -4.55354,-3.33159 -4.54263,-6.57468 0.004,-1.27948 0.20381,-2.44947 0.51839,-3.04 0.64171,-1.20464 2.33215,-2.81029 3.66584,-3.48197 l 1.01984,-0.51362 -1.09371,-1.62526 c -3.50618,-5.21016 -1.27218,-10.56028 4.63086,-11.09023 3.17441,-0.28499 6.00053,1.06676 7.23951,3.46269 0.64932,1.25563 0.57651,4.32897 -0.13991,5.90625 -0.54884,1.20833 -2.98828,3.66214 -3.6407,3.66214 -0.52215,0 -0.10448,0.5631 2.13325,2.87603 2.58646,2.67338 2.54057,2.6952 3.52502,-1.67603 0.18956,-0.84168 0.28285,-0.88 2.14212,-0.88 h 1.94393 l -0.23017,1.67355 c -0.27643,2.0099 -0.88146,3.8013 -1.76869,5.23688 l -0.65552,1.06065 2.45962,2.57446 2.45962,2.57446 h -2.88448 -2.88447 l -0.83358,-1.09288 -0.83358,-1.09287 -2.28413,1.17287 c -2.13859,1.09815 -2.49059,1.17744 -5.5244,1.24449 -2.16349,0.0478 -3.63299,-0.0774 -4.42203,-0.37693 z m 7.1139,-3.53896 c 2.49835,-0.88147 2.49952,-0.87436 -0.71475,-4.34925 -1.61094,-1.74156 -3.11486,-3.16647 -3.34205,-3.16647 -0.83341,0 -2.66666,1.97934 -3.00827,3.248 -0.92949,3.45188 2.87086,5.74752 7.06507,4.26772 z m -1.04152,-12.81514 c 1.71662,-1.20237 2.2533,-4.30056 0.94938,-5.48063 -0.93224,-0.84368 -2.02259,-1.09636 -3.04827,-0.70639 -2.2865,0.86932 -2.2721,3.39544 0.034,5.96644 0.76405,0.85182 1.11078,0.88885 2.06488,0.22058 z M 182.4,183.84 V 172.8 h -4 -4 v -2.08 -2.08 h 10.4 10.4 v 2.08 2.08 h -4 -4 v 11.04 11.04 h -2.4 -2.4 z m 36.8,2.06201 v -8.978 l 1.36,-0.59548 c 2.09111,-0.91559 5.15057,-1.40063 7.46904,-1.18413 1.14239,0.10668 2.21519,0.27932 2.38401,0.38366 0.16883,0.10434 0.30695,1.12604 0.30695,2.27043 v 2.08073 l -1.52,-0.25657 c -1.67748,-0.28316 -3.52761,-0.27051 -4.73431,0.0324 l -0.78569,0.19719 v 7.51391 7.5139 h -2.24 -2.24 z m 15.68,0.0574 v -8.92059 l 1.68,-0.72604 c 2.1658,-0.93598 5.66532,-1.43434 8,-1.13927 l 1.84,0.23255 v 2.23148 2.23147 l -1.2,-0.24744 c -1.68668,-0.3478 -4.32337,-0.25072 -5.14588,0.18948 -0.68122,0.36458 -0.69412,0.50801 -0.69412,7.72022 V 194.88 h -2.24 -2.24 z M 357.12001,185.12 v -9.76 h 2.24 2.24 v 9.76 9.76 h -2.24 -2.24 z m 32.96,0.63208 v -9.12792 l 0.87254,-0.33174 c 3.00192,-1.14133 9.14698,-1.6211 11.69619,-0.91318 1.50407,0.41768 3.38746,2.03779 3.95895,3.40548 0.32153,0.76958 0.43232,2.96432 0.43232,8.565 V 194.88 h -2.08 -2.08 l -0.003,-6 c -0.003,-6.57922 -0.24407,-8.04353 -1.49239,-9.02544 -0.8662,-0.68136 -3.6182,-0.89609 -5.82582,-0.45456 l -1,0.2 v 7.64 7.64 h -2.24 -2.24 v -9.12792 z m -31.96477,-13.71864 c -0.90912,-0.50388 -1.60816,-1.66533 -1.62391,-2.69805 -0.0168,-1.10394 1.64103,-2.61539 2.86868,-2.61539 1.19164,0 2.88,1.49563 2.88,2.55128 0,1.06584 -0.83104,2.40723 -1.75108,2.82642 -1.04806,0.47754 -1.41404,0.46763 -2.37369,-0.0643 z M 42.720001,152.3024 C 31.740937,150.81752 24.259692,144.9978 21.557602,135.84 c -0.512084,-1.73553 -0.576906,-3.98292 -0.674686,-23.3915 l -0.108173,-21.471492 2.104422,-1.968586 c 2.310485,-2.161344 7.163145,-4.756265 10.463476,-5.595257 l 1.82264,-0.463341 0.11878,22.925086 c 0.105536,20.36866 0.179786,23.15394 0.66584,24.97737 1.53993,5.77699 4.875805,8.57502 11.046413,9.26538 2.425194,0.27133 9.360861,-0.0136 12.683687,-0.52115 l 1.6,-0.24438 0.08206,-23.98716 0.08206,-23.987159 1.517943,-1.568198 c 2.739948,-2.830656 7.084128,-5.274301 11.357945,-6.388963 l 1.84,-0.479895 v 33.212305 33.2123 l -0.72,0.20485 c -2.114771,0.60172 -7.36263,1.56606 -11.6,2.13162 -5.50159,0.73429 -17.589715,1.07803 -21.12,0.60057 z M 236.32,152.29763 c -7.41777,-1.01876 -12.50029,-3.84245 -14.79882,-8.22178 -1.38695,-2.64251 -1.78847,-4.74468 -1.61084,-8.4335 0.13642,-2.83302 0.27424,-3.40901 1.32391,-5.53286 2.036,-4.11957 5.71696,-6.7665 11.42574,-8.2161 2.16288,-0.5492 3.99771,-0.71773 9.22316,-0.84711 l 6.52315,-0.16152 -0.16952,-2.47324 c -0.19254,-2.8091 -0.68721,-3.97781 -2.27298,-5.37014 -1.71205,-1.50319 -3.0932,-1.84348 -7.4038,-1.82416 -4.50894,0.0202 -7.48661,0.72679 -11.47705,2.72339 -1.38438,0.69266 -2.57238,1.25939 -2.64,1.25939 -0.0676,0 -0.12295,-2.73393 -0.12295,-6.07539 v -6.0754 l 1.9051,-0.96168 c 7.66286,-3.868208 20.73049,-4.255591 27.51863,-0.81578 2.53026,1.28218 4.98955,3.78085 6.25749,6.35767 2.01339,4.09182 2.06705,4.73579 2.07323,24.88169 l 0.006,18.11112 -3.12,0.53775 c -1.716,0.29577 -4.2,0.68064 -5.52,0.85528 -3.47746,0.46008 -14.50209,0.64191 -17.12,0.28236 z m 10.8,-10.42302 1.2,-0.19834 v -5.87813 -5.87813 l -2.96,0.003 c -7.91607,0.006 -11.44,1.85361 -11.44,5.99654 0,4.29237 2.61779,6.11954 8.8,6.14224 1.76,0.006 3.74,-0.0775 4.4,-0.18659 z m 34.80001,10.27545 c -3.27167,-0.58915 -7.15857,-1.88757 -9.453,-3.15778 l -1.90701,-1.05574 -0.0859,-7.40827 c -0.0473,-4.07455 -0.0181,-7.40827 0.0647,-7.40827 0.0828,0 1.07294,0.64479 2.2003,1.43287 4.84516,3.38701 10.4089,5.2983 15.58093,5.35246 3.87424,0.0406 6.31901,-0.48444 8.22983,-1.76736 2.08956,-1.40292 2.95823,-3.04092 2.9649,-5.59072 0.0119,-4.54077 -2.13427,-6.27818 -11.35473,-9.1922 -5.72683,-1.8099 -9.22991,-3.38858 -11.86464,-5.34686 -4.495,-3.34092 -6.61634,-7.60514 -7.03743,-14.14631 -0.55327,-8.594696 3.34237,-15.69267 10.55678,-19.234779 4.53297,-2.225581 6.14874,-2.549027 12.66529,-2.535341 6.6759,0.01402 9.1351,0.537843 14.32,3.05024 l 3.28,1.58936 v 7.35432 c 0,4.044877 -0.0716,7.35432 -0.15911,7.35432 -0.0875,0 -1.0595,-0.66916 -2.16,-1.487034 -2.47358,-1.83832 -7.06811,-4.037328 -9.86134,-4.719779 -2.68831,-0.656816 -7.35412,-0.664425 -9.53911,-0.01555 -3.19606,0.949133 -5.19399,4.029344 -4.70944,7.260573 0.56285,3.75331 2.7426,5.20014 12.189,8.09053 8.7013,2.66241 13.64615,6.05135 16.19393,11.0985 1.48651,2.94475 2.00212,5.62075 1.9909,10.33276 -0.009,3.60236 -0.12201,4.50317 -0.84617,6.72 -2.3722,7.26183 -8.31936,11.85822 -17.38963,13.43994 -3.38371,0.59007 -10.56578,0.58496 -13.86903,-0.01 z m 53.92,0.14756 c -11.02208,-1.51377 -16.49106,-6.7428 -16.47621,-15.75337 0.0123,-7.47459 4.44481,-12.52097 12.88248,-14.66669 2.08857,-0.53114 3.98393,-0.7032 9.15686,-0.83129 l 6.52317,-0.16152 -0.16954,-2.47324 c -0.19254,-2.8091 -0.6872,-3.97781 -2.27296,-5.37013 -1.71206,-1.5032 -3.09321,-1.84349 -7.4038,-1.82416 -4.51757,0.0203 -7.37959,0.70146 -11.36426,2.70491 -1.39782,0.70283 -2.61674,1.27787 -2.70864,1.27787 -0.0919,0 -0.1671,-2.74537 -0.1671,-6.10082 v -6.10082 l 2.34153,-1.08185 c 4.89943,-2.263678 10.6281,-3.253448 16.99114,-2.93564 8.37641,0.418372 13.66656,3.23159 16.45161,8.74874 1.88026,3.72476 1.97572,4.92547 1.97572,24.84801 v 18.04461 l -3.12,0.53775 c -1.716,0.29577 -4.2,0.68064 -5.52,0.85528 -3.47748,0.46008 -14.50208,0.64191 -17.12,0.28236 z m 10.8,-10.42301 1.2,-0.19835 V 135.79813 129.92 l -2.96,0.003 c -5.54026,0.005 -9.13172,1.00713 -10.58621,2.95527 -1.01408,1.35823 -1.12013,4.32129 -0.21248,5.93624 0.69629,1.23887 2.33702,2.41961 4.10313,2.95278 1.03216,0.3116 6.77946,0.38495 8.45556,0.1079 z m 96.1311,10.44897 c -5.74505,-1.03407 -10.24109,-3.29527 -14.01264,-7.04742 -2.32646,-2.31452 -2.99142,-3.22378 -4.22083,-5.77174 -1.73142,-3.58837 -2.36995,-5.92637 -2.7697,-10.14121 -1.08531,-11.44444 3.46765,-21.97376 11.63904,-26.91669 4.42586,-2.677246 8.97808,-3.74716 14.74452,-3.465429 4.38352,0.21417 6.25884,0.656864 9.69478,2.288569 3.28115,1.55822 6.48227,4.78839 8.15709,8.23112 1.9751,4.05993 2.51081,6.85009 2.70717,14.09922 l 0.17116,6.32 h -16.82553 -16.82554 l 0.43242,1.43681 c 1.01683,3.37866 3.23443,5.85295 6.73696,7.51667 2.81545,1.33735 5.29939,1.72052 9.84665,1.51891 5.46208,-0.24217 8.32509,-1.08339 14.72036,-4.32519 0.13587,-0.0689 0.20787,2.65248 0.16,6.04742 l -0.087,6.17264 -2.4073,1.21636 c -1.32403,0.669 -3.84403,1.5942 -5.6,2.056 -2.76342,0.72673 -3.9672,0.85329 -8.9527,0.94119 -3.168,0.0559 -6.45699,-0.0239 -7.3089,-0.17723 z m 12.79891,-32.72908 c -0.3456,-2.94054 -1.1519,-4.73892 -2.90643,-6.48262 -1.89686,-1.88515 -3.40029,-2.43953 -6.58848,-2.42945 -3.45965,0.0109 -6.16755,1.44601 -8.13123,4.30916 -1.04598,1.52515 -2.42387,4.85549 -2.42387,5.85851 0,0.35081 1.86256,0.4299 10.12406,0.4299 h 10.12407 z M 88.853336,151.46667 c -0.117334,-0.11734 -0.213334,-10.98423 -0.213334,-24.14865 v -23.93531 l 3.562672,-1.12813 c 7.992596,-2.530887 18.348286,-3.810366 25.123676,-3.10411 9.50889,0.99119 14.65523,4.85436 16.97774,12.74456 0.48537,1.64894 0.56168,4.0619 0.65883,20.83126 l 0.10987,18.96628 -6.97639,-0.0863 -6.9764,-0.0863 -0.16,-17.28 c -0.17914,-19.34729 -0.0896,-18.61121 -2.51593,-20.68804 -0.72557,-0.62106 -1.93231,-1.31465 -2.68164,-1.54131 -2.40611,-0.72781 -7.81596,-0.43332 -11.8133,0.64305 l -1.22913,0.331 V 132.33233 151.68 h -6.826664 c -3.754669,0 -6.922669,-0.096 -7.04,-0.21333 z m 57.926194,0.006 C 146.65879,151.35212 146.56,141.50084 146.56,129.58114 v -21.6722 l 1.92335,-1.78068 c 2.83415,-2.62392 7.12812,-4.82394 11.27856,-5.77857 l 0.8819,-0.20284 -0.0819,25.68657 -0.0819,25.68658 -6.74047,0.0862 c -3.70726,0.0474 -6.83926,-0.0126 -6.96,-0.13333 z M 173.44,121.45114 V 91.222269 l 1.01076,-1.151181 c 1.20282,-1.369949 4.28204,-3.60065 6.50924,-4.715546 1.29974,-0.650627 6.50166,-2.475542 7.05652,-2.475542 0.0789,0 0.14348,12.528 0.14348,27.84 v 27.84 h 13.28 13.28 v 6.56 6.56 h -20.64 -20.64 z m 199.36001,0.33412 V 91.890525 l 1.47171,-1.471699 c 1.64925,-1.649252 3.43321,-2.938359 5.56214,-4.019223 1.73588,-0.881309 5.65514,-2.239603 6.46221,-2.239603 0.56157,0 0.58394,1.29345 0.58394,33.76 v 33.76 h -7.04 -7.04 z m 26.24,0.0135 V 91.91753 l 2.16515,-2.038762 c 1.19082,-1.121318 3.06352,-2.515578 4.16154,-3.098352 2.13235,-1.13175 6.20528,-2.62041 7.16937,-2.62041 0.56157,0 0.58394,1.29345 0.58394,33.760004 v 33.76 h -7.04 -7.04 z M 149.82233,91.971126 c -5.19828,-2.590409 -6.10107,-9.682918 -1.73465,-13.627718 3.38324,-3.056554 8.60192,-2.820397 11.53664,0.522058 1.74156,1.983529 2.12308,2.993017 2.12191,5.614534 -0.001,2.712624 -0.61555,4.237056 -2.44055,6.055978 -2.42613,2.418035 -6.32647,3.008288 -9.48335,1.435148 z M 427.52001,77.248723 c 0,-0.637881 2.6264,-4.382083 7.16102,-10.208723 13.4945,-17.339453 28.07568,-30.986243 42.69101,-39.955264 3.34659,-2.053716 9.92026,-5.540224 12.49014,-6.624468 1.6722,-0.70551 1.71249,-0.707432 2.28804,-0.109211 0.72291,0.75135 1.75257,4.842471 2.45581,9.757528 l 0.53062,3.708583 5.1631,0.383133 c 6.17629,0.45832 12.44173,1.313145 17.96554,2.451129 7.33075,1.510247 7.34499,1.7525 0.25302,4.305764 -6.02956,2.170777 -22.23817,8.582604 -22.62032,8.948176 -0.14409,0.137862 -0.40211,2.249552 -0.57334,4.692643 -0.39338,5.612403 -1.01306,10.052313 -2.0455,14.65568 -1.02407,4.566038 -2.13978,7.893891 -2.78247,8.299283 -0.396,0.249786 -2.44368,-1.416109 -10.0049,-8.139456 -5.22883,-4.649437 -9.88326,-8.653155 -10.34316,-8.897155 -1.8737,-0.994106 -2.44573,-0.779559 -22.39684,8.4 -10.57158,4.864 -19.44844,8.843635 -19.7264,8.843635 -0.27795,0 -0.50537,-0.230074 -0.50537,-0.511277 z m 13.76,-29.434614 c -1.496,-0.60128 -4.52,-1.68872 -6.72,-2.416538 -4.52976,-1.49856 -5.04144,-1.775885 -4.41607,-2.393475 0.50666,-0.500352 6.82205,-2.249814 13.62548,-3.774474 6.08771,-1.364272 15.91523,-3.150502 16.56476,-3.01079 0.25869,0.05564 -1.34921,1.39144 -3.57312,2.968438 -2.2239,1.576999 -5.89513,4.420999 -8.15827,6.32 -2.26317,1.899002 -4.22464,3.44088 -4.35881,3.4264 -0.13418,-0.0145 -1.46797,-0.518284 -2.96397,-1.119561 z"
       id="path986" />
  </g>
</svg>
